<svg xmlns="http://www.w3.org/2000/svg" viewBox="0 0 165.75 93.27"><defs><style>.cls-1{fill:none;}.cls-2{fill:#fff;}</style></defs><title>35photo3</title><g id="Слой_2" data-name="Слой 2"><g id="Слой_1-2" data-name="Слой 1"><path class="cls-1" d="M0,93.19V0H165.67V93.19H0Zm82.82-6.4h53.71a1.89,1.89,0,0,0,2-2.07q0-37.79,0-75.58c0-.24,0-.49,0-.73A1.45,1.45,0,0,0,138,7.2a2.53,2.53,0,0,0-1.73-.54H29a1.89,1.89,0,0,0-1.94,2.05q0,29.4,0,58.8,0,8.71,0,17.43a1.65,1.65,0,0,0,.8,1.48,2.71,2.71,0,0,0,1.57.37ZM14,36.32h-2.2c-1.15,0-2.3,0-3.45,0a1.42,1.42,0,0,0-1.55,1.6c0,1.13,0,2.27,0,3.4a1.22,1.22,0,0,0,.83,1.24,3,3,0,0,0,1,.18q5.32,0,10.64,0A3.47,3.47,0,0,0,20,42.7a1.36,1.36,0,0,0,1.17-1.43c0-1.18,0-2.36,0-3.53a1.23,1.23,0,0,0-.83-1.24,2.75,2.75,0,0,0-1-.17C17.62,36.32,15.82,36.32,14,36.32Zm.09-28.53H8.55A1.47,1.47,0,0,0,6.91,9.44q0,1.66,0,3.32a1.31,1.31,0,0,0,1,1.37,3.23,3.23,0,0,0,.85.1H19.44a3.11,3.11,0,0,0,.81-.09,1.3,1.3,0,0,0,1-1.28c0-1.24,0-2.47,0-3.71A1.14,1.14,0,0,0,20.58,8a2.69,2.69,0,0,0-1-.24C17.74,7.78,15.93,7.79,14.12,7.79ZM13.59,85.6h5.56a1.46,1.46,0,0,0,1.64-1.65c0-1.12,0-2.24,0-3.36a1.24,1.24,0,0,0-.89-1.28,2.81,2.81,0,0,0-.89-.14H8.24a3.31,3.31,0,0,0-.68.07,1.35,1.35,0,0,0-1.14,1.41q0,1.75,0,3.49a1.31,1.31,0,0,0,1,1.35,2.83,2.83,0,0,0,.81.11ZM151.64,22h-1.42c-1.39,0-2.79,0-4.18,0a1.43,1.43,0,0,0-1.58,1.61c0,1.14,0,2.27,0,3.41a1.23,1.23,0,0,0,.83,1.23,2.72,2.72,0,0,0,1,.17q5.39,0,10.78,0a2.66,2.66,0,0,0,.88-.15,1.23,1.23,0,0,0,.89-1.24q0-1.85,0-3.71a1.11,1.11,0,0,0-.66-1.08,2.79,2.79,0,0,0-1.07-.25C155.27,22,153.46,22,151.64,22Zm-.32,43h-5.57a1.47,1.47,0,0,0-1.64,1.65c0,1.11,0,2.21,0,3.32a1.32,1.32,0,0,0,1,1.36,2.89,2.89,0,0,0,.77.09H156.7a2.9,2.9,0,0,0,.64-.06,1.34,1.34,0,0,0,1.14-1.44c0-1.16,0-2.33,0-3.49a1.24,1.24,0,0,0-.81-1.25,2.52,2.52,0,0,0-.92-.18C155,65,153.14,65,151.33,65Zm.32-22.21h5.56a1.47,1.47,0,0,0,1.67-1.66c0-1.12,0-2.24,0-3.36a1.22,1.22,0,0,0-.9-1.27,3,3,0,0,0-.93-.14H146.4a3.41,3.41,0,0,0-.68.06,1.32,1.32,0,0,0-1.18,1.45c0,1.18,0,2.36,0,3.54a1.2,1.2,0,0,0,.77,1.19,2.55,2.55,0,0,0,1,.19C148.05,42.8,149.85,42.79,151.65,42.79Zm-.13,7.88h0c-1.87,0-3.74,0-5.61,0a1.42,1.42,0,0,0-1.56,1.58c0,1.15,0,2.3,0,3.45a1.21,1.21,0,0,0,.8,1.21,2.62,2.62,0,0,0,1,.18q5.41,0,10.83,0a2.59,2.59,0,0,0,.88-.15,1.22,1.22,0,0,0,.88-1.2c0-1.25,0-2.5,0-3.75a1.08,1.08,0,0,0-.6-1,2.6,2.6,0,0,0-1.06-.28C155.19,50.65,153.35,50.67,151.51,50.67ZM13.89,28.4h5.57a1.47,1.47,0,0,0,1.66-1.67c0-1.12,0-2.24,0-3.37a1.18,1.18,0,0,0-.77-1.19,2.87,2.87,0,0,0-1-.19c-3.54,0-7.08,0-10.61,0A5.18,5.18,0,0,0,8,22a1.37,1.37,0,0,0-1.26,1.43c0,1.18,0,2.36,0,3.54a1.19,1.19,0,0,0,.68,1.16,2.57,2.57,0,0,0,1,.24C10.27,28.41,12.08,28.4,13.89,28.4Zm-.3,43h4.78a9.33,9.33,0,0,0,1.12,0,1.37,1.37,0,0,0,1.3-1.48c0-1.18,0-2.36,0-3.53A1.18,1.18,0,0,0,20,65.16,2.86,2.86,0,0,0,19,65c-3.55,0-7.1,0-10.65,0a5,5,0,0,0-.6,0,1.38,1.38,0,0,0-1.31,1.35c0,1.22,0,2.44,0,3.66a1.2,1.2,0,0,0,.78,1.18,3,3,0,0,0,1,.2C10,71.41,11.81,71.4,13.59,71.4Zm137.7,7.81h-1.68c-1.31,0-2.62,0-3.93,0a1.43,1.43,0,0,0-1.57,1.59q0,1.66,0,3.32a1.39,1.39,0,0,0,1.28,1.47,4.42,4.42,0,0,0,.64,0h10.57a3.87,3.87,0,0,0,.69,0,1.35,1.35,0,0,0,1.19-1.32c0-1.24,0-2.47,0-3.71a1.12,1.12,0,0,0-.65-1.09,2.58,2.58,0,0,0-1-.25C155,79.2,153.13,79.21,151.29,79.21Zm.49-64.95h2.89c.92,0,1.84,0,2.76,0A1.41,1.41,0,0,0,159,12.68c0-1.15,0-2.3,0-3.45A1.21,1.21,0,0,0,158.09,8a3,3,0,0,0-.93-.13H146.59a5.53,5.53,0,0,0-.73,0,1.35,1.35,0,0,0-1.25,1.39c0,1.19,0,2.39,0,3.58a1.24,1.24,0,0,0,.86,1.26,2.68,2.68,0,0,0,.93.15C148.19,14.26,150,14.26,151.78,14.26Zm-138,36.37H10.37c-.76,0-1.53,0-2.29,0a1.37,1.37,0,0,0-1.44,1.52c0,1.16,0,2.33,0,3.49a1.18,1.18,0,0,0,.76,1.19,2.66,2.66,0,0,0,1,.2c3.61,0,7.22,0,10.83,0a3.31,3.31,0,0,0,.52,0A1.36,1.36,0,0,0,21,55.71c0-1.25,0-2.5,0-3.75a1.13,1.13,0,0,0-.7-1.1,2.74,2.74,0,0,0-1-.22C17.44,50.62,15.63,50.63,13.82,50.63Z"/><path class="cls-2" d="M0,93.19H165.67V0s.08,0,.08,0,0,.23,0,.34V93.27H.39A1.87,1.87,0,0,1,0,93.19Z"/><path class="cls-2" d="M82.82,86.79H29.46a2.71,2.71,0,0,1-1.57-.37,1.65,1.65,0,0,1-.8-1.48q0-8.71,0-17.43,0-29.4,0-58.8A1.89,1.89,0,0,1,29,6.67H136.28A2.53,2.53,0,0,1,138,7.2a1.45,1.45,0,0,1,.57,1.2c0,.24,0,.49,0,.73q0,37.79,0,75.58a1.89,1.89,0,0,1-2,2.07H82.82Z"/><path class="cls-2" d="M14,36.32c1.8,0,3.59,0,5.39,0a2.75,2.75,0,0,1,1,.17,1.23,1.23,0,0,1,.83,1.24c0,1.18,0,2.36,0,3.53A1.36,1.36,0,0,1,20,42.7a3.47,3.47,0,0,1-.69.05q-5.32,0-10.64,0a3,3,0,0,1-1-.18,1.22,1.22,0,0,1-.83-1.24c0-1.13,0-2.27,0-3.4a1.42,1.42,0,0,1,1.55-1.6c1.15,0,2.3,0,3.45,0Z"/><path class="cls-2" d="M14.12,7.79c1.81,0,3.62,0,5.44,0a2.69,2.69,0,0,1,1,.24,1.14,1.14,0,0,1,.69,1.11c0,1.24,0,2.47,0,3.71a1.3,1.3,0,0,1-1,1.28,3.11,3.11,0,0,1-.81.09H8.78a3.23,3.23,0,0,1-.85-.1,1.31,1.31,0,0,1-1-1.37q0-1.66,0-3.32A1.47,1.47,0,0,1,8.55,7.79h5.57Z"/><path class="cls-2" d="M13.59,85.6H8.2a2.83,2.83,0,0,1-.81-.11,1.31,1.31,0,0,1-1-1.35q0-1.75,0-3.49a1.35,1.35,0,0,1,1.14-1.41,3.31,3.31,0,0,1,.68-.07H19a2.81,2.81,0,0,1,.89.14,1.24,1.24,0,0,1,.89,1.28c0,1.12,0,2.24,0,3.36a1.46,1.46,0,0,1-1.64,1.65Z"/><path class="cls-2" d="M151.64,22c1.81,0,3.62,0,5.43,0a2.79,2.79,0,0,1,1.07.25,1.11,1.11,0,0,1,.66,1.08q0,1.85,0,3.71a1.23,1.23,0,0,1-.89,1.24,2.66,2.66,0,0,1-.88.15q-5.39,0-10.78,0a2.72,2.72,0,0,1-1-.17,1.23,1.23,0,0,1-.83-1.23c0-1.14,0-2.27,0-3.41A1.43,1.43,0,0,1,146,22c1.39,0,2.79,0,4.18,0Z"/><path class="cls-2" d="M151.33,65c1.81,0,3.62,0,5.44,0a2.52,2.52,0,0,1,.92.18,1.24,1.24,0,0,1,.81,1.25c0,1.16,0,2.33,0,3.49a1.34,1.34,0,0,1-1.14,1.44,2.9,2.9,0,0,1-.64.06H145.92a2.89,2.89,0,0,1-.77-.09,1.32,1.32,0,0,1-1-1.36c0-1.11,0-2.21,0-3.32A1.47,1.47,0,0,1,145.76,65h5.57Z"/><path class="cls-2" d="M151.65,42.79c-1.8,0-3.59,0-5.39,0a2.55,2.55,0,0,1-1-.19,1.2,1.2,0,0,1-.77-1.19c0-1.18,0-2.36,0-3.54a1.32,1.32,0,0,1,1.18-1.45,3.41,3.41,0,0,1,.68-.06h10.65a3,3,0,0,1,.93.14,1.22,1.22,0,0,1,.9,1.27c0,1.12,0,2.24,0,3.36a1.47,1.47,0,0,1-1.67,1.66Z"/><path class="cls-2" d="M151.51,50.67c1.84,0,3.68,0,5.52,0a2.6,2.6,0,0,1,1.06.28,1.08,1.08,0,0,1,.6,1c0,1.25,0,2.5,0,3.75a1.22,1.22,0,0,1-.88,1.2,2.59,2.59,0,0,1-.88.15q-5.41,0-10.83,0a2.62,2.62,0,0,1-1-.18,1.21,1.21,0,0,1-.8-1.21c0-1.15,0-2.3,0-3.45a1.42,1.42,0,0,1,1.56-1.58c1.87,0,3.74,0,5.61,0Z"/><path class="cls-2" d="M13.89,28.4c-1.81,0-3.62,0-5.44,0a2.57,2.57,0,0,1-1-.24A1.19,1.19,0,0,1,6.75,27c0-1.18,0-2.36,0-3.54A1.37,1.37,0,0,1,8,22a5.18,5.18,0,0,1,.69,0c3.54,0,7.08,0,10.61,0a2.87,2.87,0,0,1,1,.19,1.18,1.18,0,0,1,.77,1.19c0,1.12,0,2.24,0,3.37a1.47,1.47,0,0,1-1.66,1.67H13.89Z"/><path class="cls-2" d="M13.59,71.4c-1.78,0-3.56,0-5.34,0a3,3,0,0,1-1-.2A1.2,1.2,0,0,1,6.42,70c0-1.22,0-2.44,0-3.66A1.38,1.38,0,0,1,7.73,65a5,5,0,0,1,.6,0c3.55,0,7.1,0,10.65,0a2.86,2.86,0,0,1,1,.19,1.18,1.18,0,0,1,.77,1.18c0,1.18,0,2.36,0,3.53a1.37,1.37,0,0,1-1.3,1.48,9.33,9.33,0,0,1-1.12,0Z"/><path class="cls-2" d="M151.29,79.21c1.84,0,3.68,0,5.52,0a2.58,2.58,0,0,1,1,.25,1.12,1.12,0,0,1,.65,1.09c0,1.24,0,2.47,0,3.71a1.35,1.35,0,0,1-1.19,1.32,3.87,3.87,0,0,1-.69,0H146a4.42,4.42,0,0,1-.64,0,1.39,1.39,0,0,1-1.28-1.47q0-1.66,0-3.32a1.43,1.43,0,0,1,1.57-1.59c1.31,0,2.62,0,3.93,0Z"/><path class="cls-2" d="M151.78,14.26c-1.8,0-3.59,0-5.39,0a2.68,2.68,0,0,1-.93-.15,1.24,1.24,0,0,1-.86-1.26c0-1.19,0-2.39,0-3.58a1.35,1.35,0,0,1,1.25-1.39,5.53,5.53,0,0,1,.73,0h10.57a3,3,0,0,1,.93.13A1.21,1.21,0,0,1,159,9.23c0,1.15,0,2.3,0,3.45a1.41,1.41,0,0,1-1.53,1.57c-.92,0-1.84,0-2.76,0Z"/><path class="cls-2" d="M13.82,50.63c1.81,0,3.62,0,5.44,0a2.74,2.74,0,0,1,1,.22A1.13,1.13,0,0,1,21,52c0,1.25,0,2.5,0,3.75A1.36,1.36,0,0,1,19.74,57a3.31,3.31,0,0,1-.52,0c-3.61,0-7.22,0-10.83,0a2.66,2.66,0,0,1-1-.2,1.18,1.18,0,0,1-.76-1.19c0-1.16,0-2.33,0-3.49a1.37,1.37,0,0,1,1.44-1.52c.76,0,1.52,0,2.29,0Z"/></g></g></svg>